FILE "From Darwin to Derrida꞉ Selfish Genes, Social Selves, and the Meanings of Life [1713524619].m4b" MP3
TRACK 1 AUDIO
  TITLE "Opening Credits"
  INDEX 01 0:00:00
TRACK 2 AUDIO
  TITLE "Dedication"
  INDEX 01 0:24:21
TRACK 3 AUDIO
  TITLE "Epigraph"
  INDEX 01 0:35:46
TRACK 4 AUDIO
  TITLE "Foreword by Daniel C. Dennett"
  INDEX 01 1:22:35
TRACK 5 AUDIO
  TITLE "Prologue: From the Beginning Was the Word"
  INDEX 01 19:29:70
TRACK 6 AUDIO
  TITLE "1. Barren Virgins"
  INDEX 01 41:11:03
TRACK 7 AUDIO
  TITLE "2. Social Genes"
  INDEX 01 78:32:14
TRACK 8 AUDIO
  TITLE "3. The “Gene” Meme"
  INDEX 01 159:35:19
TRACK 9 AUDIO
  TITLE "4. Differences That Make a Differance"
  INDEX 01 202:19:29
TRACK 10 AUDIO
  TITLE "5. Limber Robots and Lumbering Genes"
  INDEX 01 263:24:37
TRACK 11 AUDIO
  TITLE "6. Intrapersonal Conflict"
  INDEX 01 313:35:44
TRACK 12 AUDIO
  TITLE "7. Scratching Your Own Back"
  INDEX 01 354:56:53
TRACK 13 AUDIO
  TITLE "8. Reflexions on Self"
  INDEX 01 380:57:60
TRACK 14 AUDIO
  TITLE "9. How Come? What For? Why?"
  INDEX 01 444:33:72
TRACK 15 AUDIO
  TITLE "10. Sameness and Difference"
  INDEX 01 489:49:03
TRACK 16 AUDIO
  TITLE "11. Fighting the Good Cause"
  INDEX 01 557:44:14
TRACK 17 AUDIO
  TITLE "Interlude"
  INDEX 01 642:49:13
TRACK 18 AUDIO
  TITLE "12. Making Sense"
  INDEX 01 663:53:23
TRACK 19 AUDIO
  TITLE "X. Vive la différance"
  INDEX 01 740:47:31
TRACK 20 AUDIO
  TITLE "13. On the Origin of Meaning"
  INDEX 01 747:22:41
TRACK 21 AUDIO
  TITLE "14. On the Past and Future of Freedom"
  INDEX 01 800:47:50
TRACK 22 AUDIO
  TITLE "15. Darwinian Hermeneutics"
  INDEX 01 829:06:59
TRACK 23 AUDIO
  TITLE "Cadenza"
  INDEX 01 871:29:68
TRACK 24 AUDIO
  TITLE "Appendix (a Vestigial Organ): Words About Words"
  INDEX 01 873:55:00
TRACK 25 AUDIO
  TITLE "End Credits"
  INDEX 01 898:35:73
